<?xml version="1.0" encoding="UTF-8" standalone="no"?>
<!-- Created with Inkscape (http://www.inkscape.org/) -->

<svg
   width="512mm"
   height="512mm"
   viewBox="0 0 512 512.00002"
   version="1.1"
   id="svg1"
   xml:space="preserve"
   xmlns="http://www.w3.org/2000/svg"
   xmlns:svg="http://www.w3.org/2000/svg"><defs
     id="defs1" /><g
     id="layer1"
     style="display:inline;opacity:1"
     transform="translate(-62.556597,-87.257428)"><g
       id="g1"
       transform="translate(-3.9584509e-6,-2.2e-5)"><path
         id="path38"
         style="display:inline;fill:#fc733c;fill-opacity:1;stroke:none;stroke-width:0.296166;stroke-opacity:1"
         d="m 214.69907,374.26459 a 31.351819,31.351819 0 0 0 -31.35168,31.35167 31.351819,31.351819 0 0 0 31.35168,31.35168 31.351819,31.351819 0 0 0 31.35215,-31.35168 31.351819,31.351819 0 0 0 -31.35215,-31.35167 z m -12.07995,14.31928 a 5.141194,5.141194 0 0 1 5.141,5.14148 5.141194,5.141194 0 0 1 -5.141,5.141 5.141194,5.141194 0 0 1 -5.14148,-5.141 5.141194,5.141194 0 0 1 5.14148,-5.14148 z" /><path
         id="path70"
         style="display:inline;fill:#fb743c;fill-opacity:1;stroke:none;stroke-width:10;stroke-dasharray:none;stroke-opacity:1"
         d="m 318.55661,174.01697 v 140.04549 h 13.16986 a 3.4552804,3.4552804 0 0 1 3.45543,3.45542 3.4552804,3.4552804 0 0 1 -3.45543,3.45543 h -13.16986 v 6.45518 h 13.16986 a 3.4552804,3.4552804 0 0 1 3.45543,3.45542 3.4552804,3.4552804 0 0 1 -3.45543,3.45495 h -13.16986 v 17.86852 h 67.75484 v -50.41962 c -1.29653,0.0822 -2.59199,0.12184 -3.88397,0.11952 -1.29198,-0.003 -2.58044,-0.0464 -3.86396,-0.13189 -1.28353,-0.0854 -2.56184,-0.21228 -3.83302,-0.37949 -1.27118,-0.16723 -2.53522,-0.37517 -3.79016,-0.62281 -1.25494,-0.24764 -2.50107,-0.53514 -3.73587,-0.86184 -1.23481,-0.32669 -2.45845,-0.69263 -3.66923,-1.09705 -1.21077,-0.40441 -2.40827,-0.84721 -3.59112,-1.32799 -1.18286,-0.48076 -2.35106,-0.99934 -3.5021,-1.5551 -1.15102,-0.55577 -2.28535,-1.14853 -3.40066,-1.77795 -1.11531,-0.62942 -2.21164,-1.29527 -3.28735,-1.99698 -1.0757,-0.70171 -2.1304,-1.43954 -3.16259,-2.21219 -1.03219,-0.77265 -2.04162,-1.58043 -3.02642,-2.42266 -0.98479,-0.84223 -1.94531,-1.71884 -2.87881,-2.6293 -0.93348,-0.91046 -1.84004,-1.85481 -2.71834,-2.83215 -0.8783,-0.97734 -1.7282,-1.98784 -2.5474,-3.0307 -0.81922,-1.04285 -1.60787,-2.11794 -2.3641,-3.22497 a 4.6070405,4.6070405 0 0 1 -0.70946,-2.02174 4.6070405,4.6070405 0 0 1 -0.05,-0.38853 4.6070405,4.6070405 0 0 1 0.38045,-2.02269 4.6070405,4.6070405 0 0 1 0.18854,-0.34521 4.6070405,4.6070405 0 0 1 1.39608,-1.62463 4.6070405,4.6070405 0 0 1 2.02079,-0.70946 4.6070405,4.6070405 0 0 1 0.39044,-0.05 4.6070405,4.6070405 0 0 1 2.02221,0.38045 4.6070405,4.6070405 0 0 1 0.34569,0.18903 4.6070405,4.6070405 0 0 1 1.62414,1.3956 c 0.64815,0.94881 1.32424,1.87012 2.0265,2.7631 0.70226,0.89299 1.43063,1.75759 2.18363,2.5936 0.75301,0.836 1.53085,1.64337 2.33124,2.42123 0.8004,0.77785 1.62347,1.52603 2.46789,2.24457 0.84441,0.71854 1.70995,1.40748 2.59502,2.06554 0.88507,0.65805 1.78979,1.28533 2.71216,1.88175 0.92236,0.59642 1.86252,1.16197 2.81881,1.69557 0.95629,0.53361 1.92862,1.03548 2.91547,1.50512 0.98685,0.46963 1.98809,0.90683 3.00213,1.31132 1.01405,0.40448 2.04091,0.776 3.07879,1.11419 1.03788,0.33818 2.08663,0.64301 3.14498,0.91373 1.05835,0.27072 2.12618,0.50739 3.20164,0.70947 1.07545,0.20208 2.15863,0.36958 3.24782,0.50186 1.0892,0.13228 2.18444,0.22961 3.28401,0.29093 1.09957,0.0613 2.20362,0.0865 3.31021,0.0757 1.10657,-0.0108 2.21568,-0.0578 3.32591,-0.14189 v -0.01 c 3.24402,-0.24079 6.40231,-0.7888 9.44778,-1.6113 0.14355,-0.039 0.28656,-0.0831 0.42997,-0.12333 0.56842,-0.15895 1.1335,-0.32616 1.69366,-0.50424 0.23714,-0.0755 0.47168,-0.15554 0.70709,-0.23427 0.48141,-0.16093 0.96027,-0.327 1.43512,-0.50186 0.23384,-0.0861 0.46649,-0.17408 0.69851,-0.26331 0.50293,-0.19372 1.00199,-0.39509 1.49702,-0.60423 0.17862,-0.0753 0.35774,-0.14993 0.53519,-0.22713 0.61096,-0.26646 1.21647,-0.54275 1.81462,-0.83231 0.0535,-0.0258 0.10799,-0.0502 0.16141,-0.0762 9.80322,-4.7886 17.83145,-12.64663 22.83191,-22.32339 0.0655,-0.12704 0.12554,-0.25708 0.18999,-0.38472 0.25773,-0.50933 0.5086,-1.02274 0.74945,-1.54177 0.12118,-0.2617 0.23606,-0.52648 0.35284,-0.79042 0.17278,-0.38976 0.34202,-0.78122 0.50519,-1.17609 0.1292,-0.31322 0.25504,-0.6281 0.37806,-0.9442 0.13755,-0.35293 0.27016,-0.70845 0.39997,-1.06516 0.12478,-0.34335 0.24915,-0.68674 0.36663,-1.03325 0.11441,-0.33709 0.22061,-0.67775 0.32807,-1.01801 0.11399,-0.36112 0.23158,-0.72088 0.33759,-1.08514 0.11119,-0.38198 0.20999,-0.76902 0.31236,-1.15467 0.16102,-0.60638 0.3107,-1.2166 0.44948,-1.8308 0.0863,-0.38206 0.1753,-0.76319 0.25284,-1.14847 0.0708,-0.35088 0.13132,-0.70486 0.19474,-1.05801 0.0702,-0.39175 0.13935,-0.78366 0.20047,-1.17847 0.0518,-0.33351 0.0981,-0.6684 0.14332,-1.00373 0.059,-0.43899 0.11232,-0.8798 0.15999,-1.32228 0.0322,-0.29825 0.0644,-0.59656 0.0914,-0.89611 0.0463,-0.51567 0.0821,-1.03414 0.11284,-1.55416 0.0143,-0.24035 0.0329,-0.4798 0.0438,-0.72089 0.0345,-0.76703 0.0557,-1.53757 0.0557,-2.31314 0,-27.98816 -22.68905,-50.6772 -50.67721,-50.6772 -7.28991,0 -14.20422,1.56791 -20.46782,4.33915 A 54.526148,54.526148 0 0 0 318.55662,174.017 Z m 90.73149,69.38327 a 5.0305067,5.0302894 0 0 1 5.03006,5.03197 c 0,14.58059 -11.92843,26.50826 -26.5097,26.50826 a 5.0305067,5.0302894 0 0 1 -5.03006,-5.03148 5.0305067,5.0302894 0 0 1 5.03006,-5.03005 c 9.14392,0 16.44911,-7.30321 16.44911,-16.44673 a 5.0305067,5.0302894 0 0 1 5.03053,-5.03197 z" /><path
         id="path75"
         style="color:#000000;fill:#fc753c;fill-opacity:1;stroke-width:1;stroke-linejoin:round;-inkscape-stroke:none"
         d="m 318.55661,486.58333 v 16.68956 c 3.51657,-0.14889 6.93899,-0.30158 9.64253,-0.65328 2.78455,-0.36224 4.90035,-0.93798 6.33471,-1.55987 1.43296,-0.6213 2.34334,-1.29063 3.82778,-2.57026 1.48479,-1.27992 3.6399,-3.33476 6.87086,-5.15386 3.19045,-1.79629 7.14131,-3.21074 12.52895,-4.05299 5.33257,-0.83366 10.42508,-0.92532 18.25705,-0.0843 7.92557,0.85118 16.91807,2.64756 28.84808,5.0372 11.9288,2.38937 22.2898,4.47731 39.34529,6.53231 17.00259,2.0486 27.88276,2.20313 34.38523,1.73842 6.59661,-0.47143 11.29503,-1.51947 15.18017,-2.76929 3.52106,-1.13266 6.33332,-2.44052 9.26827,-3.84349 l -4.07584,-10.64721 -0.009,-0.0233 c -0.70285,0.94653 -1.67927,1.65455 -2.79738,2.0284 -4.62899,1.5021 -9.4615,3.08242 -14.86305,4.1606 -5.40113,1.07814 -11.01501,1.58293 -16.44149,1.57464 -1.23123,-0.002 -2.43925,-0.038 -3.63779,-0.089 -0.35333,-0.015 -0.70374,-0.0355 -1.05467,-0.0543 -0.67476,-0.0362 -1.34373,-0.0838 -2.01079,-0.13285 -1.70033,-0.12495 -3.38699,-0.27366 -5.05434,-0.46377 -1.27202,-0.14503 -2.53814,-0.30508 -3.8035,-0.47472 -5.06159,-0.6786 -10.40216,-1.55225 -16.77432,-3.10403 -6.27508,-1.52815 -10.682,-2.84979 -20.24974,-5.84904 -9.56367,-2.998 -11.83724,-3.78862 -19.91786,-5.0153 -7.87287,-1.19514 -14.97901,-1.34521 -20.92635,-1.08895 -5.99874,0.25847 -8.06172,0.64173 -12.49849,1.87508 -4.42897,1.23118 -6.27958,1.97713 -9.35446,3.54161 -3.14066,1.59794 -4.50266,2.42822 -9.47302,5.98379 -0.82353,0.58911 -1.15351,0.85792 -1.80509,1.33322 -0.10011,0.0678 -0.30837,0.19489 -0.40044,0.25807 -2.04341,1.40242 -5.56191,4.29109 -7.8003,3.65541 -0.43639,-0.12392 -0.82667,-0.2997 -1.17561,-0.51805 -1.74475,-1.09173 -2.45233,-3.25317 -2.67835,-5.38336 -0.0904,-0.85208 -0.10373,-1.6993 -0.0757,-2.47074 0.0103,-0.28274 0.0369,-0.55386 0.0514,-0.83089 0.13319,-2.54759 0.50362,-4.9334 2.51217,-8.4531 2.35324,-4.12373 2.14765,-3.79496 5.76429,-7.13751 3.60917,-3.33563 3.6023,-3.31302 6.48565,-5.17719 2.84834,-1.84149 4.6431,-2.91199 8.07694,-4.39106 3.3853,-1.45816 6.41633,-2.36427 10.07964,-3.14592 3.59522,-0.76713 8.67475,-1.46085 13.42888,-1.66129 4.78033,-0.20156 9.98261,-0.004 15.02827,0.47186 5.04593,0.47478 9.89033,1.21877 14.62403,2.19886 4.73383,0.98012 9.2868,2.1804 15.22634,3.93777 5.93949,1.75735 13.19639,4.05566 19.89882,5.75143 6.70257,1.69578 12.71788,2.74918 18.21563,3.33829 5.4983,0.58917 10.45489,0.7122 14.93352,0.46281 4.4785,-0.24937 8.46279,-0.87259 12.13661,-1.82698 3.6743,-0.95452 6.92784,-2.20743 10.0506,-3.40448 l -2.47266,-6.45184 c -3.12278,1.19706 -6.10881,2.33636 -9.31494,3.16925 -3.20661,0.833 -6.7135,1.38744 -10.78481,1.61415 -4.0712,0.22671 -8.65097,0.11929 -13.81218,-0.43377 -5.16185,-0.55311 -10.8472,-1.54382 -17.25667,-3.16545 -6.40955,-1.62164 -13.59236,-3.89252 -19.63218,-5.67952 -6.03966,-1.78699 -10.81479,-3.05081 -15.7863,-4.08014 -4.97165,-1.02936 -10.07289,-1.81114 -15.37776,-2.31029 -2.65257,-0.24958 -5.34983,-0.42849 -8.03124,-0.51757 -1.3407,-0.0446 -2.67766,-0.0669 -4.003,-0.0643 -1.32534,0.003 -2.63907,0.0301 -3.93396,0.0848 -5.20579,0.21949 -10.53124,0.94526 -14.57878,1.8089 -3.97943,0.8491 -7.55275,1.91108 -11.37143,3.55589 -3.77017,1.62394 -6.14156,3.02778 -9.09354,4.93626 -2.91694,1.88588 -3.77495,2.53082 -7.42557,5.90474 -3.64316,3.36704 -4.65653,4.5479 -7.07607,8.78785 -2.46928,4.32712 -3.13877,6.62466 -3.89254,11.63236 -0.13447,0.89342 -0.1773,1.77845 -0.28046,2.66978 z" /><path
         id="path82"
         style="color:#000000;fill:#fab657;fill-opacity:1;stroke-width:1;stroke-linejoin:round;-inkscape-stroke:none"
         d="m 260.90427,447.2028 c -1.32534,-0.003 -2.6623,0.0197 -4.003,0.0643 -2.68142,0.0891 -5.37868,0.26799 -8.03124,0.51757 -5.30488,0.49915 -10.40611,1.28092 -15.37776,2.31028 -4.97152,1.02934 -9.74664,2.29316 -15.78631,4.08015 -6.03981,1.787 -13.22262,4.05788 -19.63218,5.67952 -6.40946,1.62163 -12.09482,2.61234 -17.25665,3.16545 -5.16122,0.55306 -9.74099,0.66048 -13.81219,0.43377 -4.07131,-0.22671 -7.57821,-0.78115 -10.78481,-1.61415 -3.20613,-0.8329 -6.19217,-1.97219 -9.31494,-3.16926 l -2.47265,6.45185 c 3.12275,1.19705 6.37629,2.44996 10.05059,3.40448 3.67382,0.95439 7.6581,1.57761 12.13661,1.82698 4.47862,0.24939 9.43521,0.12635 14.93352,-0.46281 5.49774,-0.58911 11.51306,-1.64251 18.21562,-3.33829 6.70244,-1.69577 13.95934,-3.99408 19.89882,-5.75143 5.93955,-1.75737 10.49252,-2.95765 15.22635,-3.93777 4.7337,-0.98009 9.5781,-1.72408 14.62402,-2.19886 5.04567,-0.47555 10.24794,-0.67342 15.02828,-0.47187 4.75412,0.20045 9.83366,0.89417 13.42887,1.66129 3.66332,0.78166 6.69435,1.68777 10.07965,3.14593 3.43384,1.47907 5.22859,2.54956 8.07694,4.39106 2.88335,1.86417 2.87648,1.84156 6.48565,5.17719 3.61663,3.34255 3.41105,3.01378 5.76429,7.13751 2.00855,3.5197 2.37898,5.90551 2.51217,8.4531 0.0145,0.27703 0.0412,0.54815 0.0514,0.83088 0.028,0.77144 0.0146,1.61867 -0.0757,2.47075 -0.22602,2.13019 -0.9336,4.29162 -2.67835,5.38336 -0.34894,0.21835 -0.73922,0.39413 -1.17561,0.51805 -2.2384,0.63568 -5.7569,-2.25299 -7.8003,-3.65541 -0.092,-0.0632 -0.30033,-0.19025 -0.40044,-0.25807 -0.65158,-0.4753 -0.98157,-0.74411 -1.8051,-1.33322 -4.97035,-3.55557 -6.33236,-4.38585 -9.47301,-5.98379 -3.07488,-1.56448 -4.92549,-2.31043 -9.35446,-3.54161 -4.43677,-1.23335 -6.49976,-1.61661 -12.49849,-1.87508 -5.94734,-0.25627 -13.05348,-0.10619 -20.92635,1.08895 -8.08063,1.22667 -10.35419,2.0173 -19.91786,5.0153 -9.56774,2.99925 -13.97466,4.32089 -20.24975,5.84904 -6.37215,1.55178 -11.71272,2.42543 -16.77432,3.10403 -1.26536,0.16964 -2.53147,0.32968 -3.80349,0.47471 -1.66735,0.19012 -3.35402,0.33882 -5.05434,0.46378 -0.66706,0.049 -1.33603,0.0966 -2.01079,0.13285 -0.35093,0.0188 -0.70134,0.0393 -1.05467,0.0543 -1.19854,0.051 -2.40656,0.0872 -3.63779,0.089 -5.42649,0.008 -11.04036,-0.4965 -16.44149,-1.57463 -5.40155,-1.07818 -10.23406,-2.6585 -14.86305,-4.1606 -1.11811,-0.37385 -2.09454,-1.08187 -2.79738,-2.0284 l -0.009,0.0233 -4.07585,10.64721 c 2.93494,1.40297 5.74721,2.71083 9.26827,3.84349 3.88514,1.24981 8.58355,2.29786 15.18017,2.76929 6.50248,0.46471 17.38265,0.31018 34.38523,-1.73842 17.05548,-2.055 27.41649,-4.14294 39.34529,-6.53231 11.93002,-2.38964 20.92251,-4.18603 28.84807,-5.0372 7.83198,-0.84105 12.92449,-0.74939 18.25706,0.0843 5.38764,0.84225 9.33849,2.25671 12.52896,4.053 3.23095,1.8191 5.38606,3.87394 6.87086,5.15386 1.48444,1.27963 2.39482,1.94896 3.82777,2.57026 1.43435,0.62189 3.55015,1.19763 6.33471,1.55987 2.70354,0.3517 6.12597,0.50439 9.64253,0.65328 v -16.68956 c -0.10315,-0.89133 -0.14598,-1.77636 -0.28045,-2.66978 -0.75377,-5.0077 -1.42325,-7.30524 -3.89254,-11.63236 -2.41955,-4.23995 -3.43291,-5.42081 -7.07607,-8.78785 -3.65062,-3.37393 -4.50863,-4.01886 -7.42557,-5.90474 -2.95198,-1.90848 -5.32337,-3.31232 -9.09353,-4.93626 -3.81869,-1.64481 -7.39202,-2.70679 -11.37143,-3.55589 -4.04755,-0.86364 -9.373,-1.58941 -14.57879,-1.8089 -1.29489,-0.0546 -2.60862,-0.082 -3.93396,-0.0848 z" /><path
         id="path50"
         style="color:#000000;fill:#fab465;fill-opacity:1;stroke-width:1;stroke-linecap:round;stroke-linejoin:round;-inkscape-stroke:none"
         d="m 376.07611,465.09084 c -1.79309,0.004 -3.50998,0.0467 -5.14339,0.11713 -6.48225,0.2793 -10.22635,0.934 -15.08827,2.28552 -4.86965,1.35368 -7.96659,2.58004 -11.49046,4.37298 -3.45811,1.75942 -5.82454,3.21354 -10.95243,6.8818 -3.34842,2.39532 -5.32021,3.91851 -7.18226,5.4105 -0.0145,0.27703 -0.0412,0.54815 -0.0514,0.83089 -0.11216,3.08577 0.43861,7.38073 3.92968,8.37215 2.23839,0.63568 5.75689,-2.25299 7.8003,-3.65541 0.092,-0.0632 0.30033,-0.19027 0.40044,-0.25807 0.65157,-0.4753 0.98156,-0.74411 1.80508,-1.33322 4.97037,-3.55557 6.33236,-4.38585 9.47303,-5.98379 3.07488,-1.56448 4.92548,-2.31043 9.35446,-3.54161 4.43676,-1.23335 6.49975,-1.61661 12.49848,-1.87508 5.94735,-0.25626 13.05347,-0.10618 20.92635,1.08896 8.08064,1.22667 10.35419,2.01729 19.91787,5.01529 9.56774,2.99926 13.97464,4.32089 20.24974,5.84904 6.37215,1.55178 11.71272,2.42543 16.77431,3.10403 1.26537,0.16964 2.53148,0.32969 3.8035,0.47472 3.81606,0.4351 7.68639,0.73371 11.75759,0.73993 5.42649,0.008 11.04035,-0.4965 16.44149,-1.57463 5.40155,-1.07819 10.23406,-2.6585 14.86305,-4.1606 1.11811,-0.37385 2.09454,-1.08187 2.79739,-2.0284 l 0.009,0.0233 c 1.13748,-1.49865 1.47116,-3.45845 0.89374,-5.24909 -0.98167,-3.02496 -4.22957,-4.68153 -7.25464,-3.70016 -4.62896,1.50211 -8.99667,2.90903 -13.56363,3.82063 -4.56738,0.91169 -9.47646,1.35823 -14.16834,1.35132 -4.69015,-0.007 -9.21267,-0.46548 -14.04788,-1.11372 -4.83505,-0.64821 -9.67621,-1.43988 -15.58109,-2.87785 -6.00188,-1.46162 -9.99911,-2.66152 -19.5279,-5.64858 -9.53286,-2.98833 -13.09543,-4.11674 -21.63677,-5.41336 -6.56181,-0.99611 -12.62783,-1.3359 -18.00707,-1.32465 z" /><path
         id="path83"
         style="color:#000000;fill:#fddca3;fill-opacity:1;stroke-width:1;stroke-linecap:round;stroke-linejoin:round;-inkscape-stroke:none"
         d="m 261.03712,465.09084 c -5.37925,-0.0113 -11.44527,0.32854 -18.00708,1.32465 -8.54134,1.29661 -12.1039,2.42503 -21.63677,5.41335 -9.52878,2.98707 -13.52601,4.18697 -19.52789,5.64859 -5.90489,1.43797 -10.74606,2.22964 -15.58109,2.87785 -4.83522,0.64824 -9.35774,1.10634 -14.04788,1.11371 -4.69188,0.006 -9.60096,-0.43962 -14.16834,-1.35131 -4.56697,-0.9116 -8.93467,-2.31853 -13.56364,-3.82063 -3.02506,-0.98138 -6.27296,0.6752 -7.25463,3.70016 -0.57743,1.79064 -0.24375,3.75044 0.89374,5.24909 l 0.009,-0.0233 c 0.70284,0.94653 1.67927,1.65455 2.79738,2.0284 4.62898,1.5021 9.4615,3.08241 14.86305,4.1606 5.40114,1.07813 11.01499,1.58293 16.44149,1.57463 4.07119,-0.006 7.94152,-0.30483 11.75759,-0.73993 1.27202,-0.14503 2.53813,-0.30508 3.80349,-0.47472 5.06161,-0.6786 10.40217,-1.55225 16.77432,-3.10403 6.2751,-1.52815 10.682,-2.84978 20.24975,-5.84904 9.56368,-2.998 11.83722,-3.78862 19.91785,-5.0153 7.87289,-1.19514 14.97901,-1.34521 20.92636,-1.08895 5.99873,0.25847 8.06172,0.64173 12.49849,1.87508 4.42898,1.23118 6.27958,1.97713 9.35446,3.54161 3.14065,1.59794 4.50266,2.42822 9.47301,5.98379 0.82353,0.58911 1.15352,0.85792 1.80509,1.33322 0.10011,0.0678 0.3084,0.19486 0.40045,0.25807 2.0434,1.40242 5.56189,4.29109 7.8003,3.65541 3.49107,-0.99142 4.04184,-5.28638 3.92967,-8.37215 -0.0102,-0.28274 -0.0369,-0.55386 -0.0514,-0.83089 -1.86205,-1.49199 -3.83383,-3.01518 -7.18227,-5.4105 -5.12788,-3.66826 -7.49431,-5.12238 -10.95241,-6.88181 -3.52388,-1.79293 -6.62082,-3.01929 -11.49048,-4.37297 -4.8619,-1.35152 -8.60601,-2.00622 -15.08827,-2.28553 -1.6334,-0.0704 -3.35029,-0.11344 -5.14337,-0.11713 z" /><path
         id="path74"
         style="color:#000000;fill:#204f5f;fill-opacity:1;stroke-width:1;stroke-linecap:round;stroke-linejoin:round;-inkscape-stroke:none"
         d="m 318.55661,503.27289 v 9.18924 c 0.0323,0.0123 0.0646,0.0241 0.0971,0.0358 3.62929,-0.15291 7.33301,-0.29909 10.73292,-0.74137 3.40009,-0.44232 6.30791,-1.15597 8.81308,-2.24219 2.50658,-1.08683 4.42828,-2.53753 6.17806,-4.04586 1.74941,-1.50803 3.19284,-2.87614 5.37526,-4.10489 2.22287,-1.25152 4.87709,-2.26624 9.43207,-2.97833 4.61002,-0.72067 8.47336,-0.81731 15.84916,-0.0252 7.28221,0.78208 16.10016,2.52162 28.02195,4.90959 11.92302,2.38822 22.69789,4.55653 40.05238,6.64754 17.40742,2.09739 28.78326,2.30602 36.14556,1.77985 7.26817,-0.51942 12.80852,-1.72952 17.34475,-3.18878 4.53662,-1.45939 8.06593,-3.15677 11.34287,-4.7296 2.29422,-1.10102 3.26126,-3.85358 2.15981,-6.14759 -1.10117,-2.29294 -3.85228,-3.25958 -6.14568,-2.15934 -3.27692,1.57282 -6.29389,3.01566 -10.17867,4.26535 -3.88519,1.24982 -8.58351,2.29787 -15.18017,2.7693 -6.50252,0.46471 -17.38256,0.31019 -34.38523,-1.73842 -17.05558,-2.055 -27.41644,-4.14293 -39.34529,-6.53232 -11.9301,-2.38963 -20.92247,-4.18602 -28.84808,-5.0372 -7.83201,-0.84113 -12.92443,-0.74938 -18.25705,0.0843 -5.38764,0.84225 -9.33845,2.25667 -12.52895,4.053 -3.23096,1.8191 -5.38607,3.87394 -6.87086,5.15386 -1.48444,1.27962 -2.39482,1.94895 -3.82778,2.57026 -1.43436,0.62192 -3.55011,1.19762 -6.33471,1.55987 -2.70354,0.3517 -6.12596,0.50439 -9.64253,0.65328 z m -2e-5,0 v 9.18924 c -0.0323,0.0123 -0.0646,0.0241 -0.0971,0.0358 -3.62928,-0.15291 -7.333,-0.29909 -10.73292,-0.74137 -3.40009,-0.44232 -6.3079,-1.15597 -8.81307,-2.24219 -2.50658,-1.08683 -4.42829,-2.53753 -6.17806,-4.04586 -1.74942,-1.50803 -3.19285,-2.87614 -5.37527,-4.10489 -2.22287,-1.25152 -4.87708,-2.26624 -9.43206,-2.97833 -4.61002,-0.72067 -8.47337,-0.81731 -15.84916,-0.0252 -7.28221,0.78208 -16.10016,2.52162 -28.02196,4.90959 -11.92301,2.38822 -22.69788,4.55653 -40.05237,6.64754 -17.40742,2.09739 -28.78326,2.30602 -36.14557,1.77985 -7.26816,-0.51942 -12.80852,-1.72952 -17.34475,-3.18878 -4.53661,-1.45939 -8.06593,-3.15677 -11.34286,-4.7296 -2.29422,-1.10102 -3.26127,-3.85358 -2.15982,-6.14759 1.10118,-2.29294 3.85228,-3.25958 6.14568,-2.15934 3.27693,1.57282 6.29389,3.01566 10.17868,4.26535 3.88518,1.24982 8.5835,2.29787 15.18016,2.7693 6.50252,0.46471 17.38257,0.31019 34.38524,-1.73842 17.05557,-2.055 27.41643,-4.14293 39.34528,-6.53232 11.9301,-2.38963 20.92247,-4.18602 28.84808,-5.0372 7.83202,-0.84113 12.92444,-0.74938 18.25705,0.0843 5.38765,0.84225 9.33845,2.25667 12.52896,4.053 3.23095,1.8191 5.38606,3.87394 6.87086,5.15386 1.48444,1.27962 2.39482,1.94895 3.82777,2.57026 1.43436,0.62192 3.55012,1.19762 6.33471,1.55987 2.70354,0.3517 6.12597,0.50439 9.64254,0.65328 z" /><circle
         style="fill:#fb763d;fill-opacity:1;stroke:none;stroke-width:0.0495885;stroke-opacity:1"
         id="path35"
         cx="163.30394"
         cy="252.17891"
         r="3.9793992" /><circle
         style="fill:#f9b759;fill-opacity:1;stroke:none;stroke-width:0.377582;stroke-opacity:1"
         id="path36"
         cx="201.48352"
         cy="333.35565"
         r="12.963379" /><circle
         style="fill:#f97538;fill-opacity:1;stroke:none;stroke-width:0.324715;stroke-opacity:1"
         id="path37"
         cx="258.47992"
         cy="371.00052"
         r="3.9141593" /><circle
         style="fill:#f97336;fill-opacity:1;stroke:none;stroke-width:0.299302;stroke-opacity:1"
         id="path40"
         cx="370.82748"
         cy="375.74686"
         r="3.9426334" /><circle
         style="fill:#fc753b;fill-opacity:1;stroke:none;stroke-width:0.27239;stroke-opacity:1"
         id="path41"
         cx="433.61349"
         cy="331.33481"
         r="14.006223" /><circle
         style="fill:#f8763b;fill-opacity:1;stroke:none;stroke-width:0.327445;stroke-opacity:1"
         id="path42"
         cx="472.65469"
         cy="254.04411"
         r="3.891856" /><rect
         style="fill:#fd753b;fill-opacity:1;stroke:none;stroke-width:0.269417;stroke-opacity:1"
         id="rect42"
         width="14.352922"
         height="14.352922"
         x="-90.257355"
         y="325.61572"
         transform="rotate(-45)"
         ry="3.1720607" /><rect
         style="fill:#f9b759;fill-opacity:1;stroke:none;stroke-width:0.21805;stroke-opacity:1"
         id="rect43"
         width="12.81495"
         height="12.81495"
         x="75.132713"
         y="577.54755"
         ry="2.6141777"
         transform="rotate(-45)" /><rect
         style="fill:#fc733c;fill-opacity:1;stroke:none;stroke-width:0.295004;stroke-opacity:1"
         id="rect44"
         width="14.031833"
         height="14.031833"
         x="111.10103"
         y="519.55371"
         ry="2.9147422"
         transform="rotate(-45)" /><path
         id="path71"
         style="fill:#f9b759;fill-opacity:1;stroke:none;stroke-width:10;stroke-dasharray:none;stroke-opacity:1"
         d="m 318.55661,174.01697 a 54.526148,54.526148 0 0 0 -43.34877,21.73343 c -6.3004,-2.81054 -13.26145,-4.40582 -20.6059,-4.40582 -27.98816,0 -50.67722,22.68905 -50.67722,50.67721 0,0.77125 0.0211,1.53747 0.0553,2.30028 0.0116,0.25878 0.0316,0.51581 0.0472,0.77375 0.03,0.50096 0.0646,1.00057 0.10904,1.4975 0.0282,0.31339 0.0614,0.62554 0.0952,0.93754 0.0462,0.4268 0.098,0.85203 0.15475,1.2756 0.0468,0.34855 0.0946,0.69667 0.14856,1.04325 0.0585,0.37709 0.1251,0.75133 0.19188,1.12562 0.0661,0.36941 0.12924,0.73965 0.20332,1.10657 0.0708,0.35108 0.15248,0.69818 0.23046,1.04659 0.15811,0.70557 0.33065,1.40598 0.51806,2.10125 0.0863,0.32045 0.16752,0.64297 0.25997,0.96087 0.11128,0.38269 0.23467,0.76068 0.35473,1.1399 0.10165,0.32088 0.20166,0.64232 0.3095,0.9604 0.12177,0.35948 0.25082,0.71572 0.38044,1.07181 0.12475,0.34228 0.25191,0.68353 0.38378,1.0223 0.12752,0.32808 0.2577,0.65496 0.39188,0.97992 0.15717,0.37999 0.32053,0.75654 0.48662,1.13181 0.12254,0.27741 0.24354,0.55548 0.37092,0.83041 0.23079,0.49698 0.47129,0.98846 0.71757,1.47654 0.0747,0.14845 0.14478,0.29945 0.22092,0.44711 0.7026,1.35892 1.4641,2.68265 2.28267,3.96634 0.01,0.0154 0.0202,0.0303 0.03,0.0457 0.40755,0.63758 0.82833,1.26595 1.26322,1.88365 0.009,0.0132 0.0188,0.0263 0.0281,0.0395 4.90332,6.95029 11.51247,12.61082 19.21793,16.37578 0.0605,0.0295 0.12215,0.0574 0.18285,0.0866 0.59078,0.28573 1.18846,0.5591 1.79175,0.82231 0.18272,0.0795 0.36742,0.15582 0.55138,0.23331 0.48945,0.20667 0.98273,0.40598 1.47988,0.59757 0.23658,0.091 0.47384,0.18087 0.71232,0.26856 0.46999,0.17299 0.94395,0.33726 1.42035,0.49662 0.23967,0.0802 0.47849,0.16172 0.71995,0.23855 0.55436,0.17618 1.1136,0.34156 1.67605,0.49901 0.14878,0.0418 0.29723,0.0872 0.44615,0.1276 3.04448,0.82202 6.20157,1.37014 9.44445,1.61083 v 0.009 c 1.11024,0.0841 2.21933,0.13107 3.32592,0.14189 1.10659,0.0108 2.21061,-0.0144 3.31019,-0.0757 1.09959,-0.0613 2.19482,-0.15865 3.28402,-0.29092 1.08921,-0.13227 2.17236,-0.29932 3.24783,-0.50139 1.07546,-0.20207 2.14328,-0.43876 3.20163,-0.70946 1.05837,-0.2707 2.10757,-0.57557 3.14546,-0.91373 1.03789,-0.33818 2.06473,-0.70973 3.07878,-1.1142 1.01407,-0.40448 2.01528,-0.8417 3.00213,-1.31132 0.98687,-0.46961 1.95919,-0.97152 2.91548,-1.50511 0.9563,-0.5336 1.89644,-1.09917 2.81882,-1.69557 0.92236,-0.5964 1.82707,-1.2237 2.71215,-1.88175 0.88508,-0.65805 1.75059,-1.34702 2.59502,-2.06555 0.84442,-0.71853 1.66749,-1.46672 2.46789,-2.24457 0.8004,-0.77785 1.57821,-1.58522 2.33123,-2.42123 0.75302,-0.836 1.48136,-1.7006 2.18363,-2.5936 0.70227,-0.89298 1.37835,-1.81428 2.0265,-2.7631 a 4.6070405,4.6070405 0 0 1 1.62415,-1.3956 4.6070405,4.6070405 0 0 1 0.34568,-0.18902 4.6070405,4.6070405 0 0 1 2.02222,-0.38045 4.6070405,4.6070405 0 0 1 0.39044,0.05 4.6070405,4.6070405 0 0 1 2.02079,0.70946 4.6070405,4.6070405 0 0 1 0.65708,0.55138 4.6070405,4.6070405 0 0 1 0.0472,0.0443 4.6070405,4.6070405 0 0 1 0.51234,0.63756 4.6070405,4.6070405 0 0 1 0.0586,0.0843 4.6070405,4.6070405 0 0 1 0.36712,0.70566 4.6070405,4.6070405 0 0 1 0.0476,0.11333 4.6070405,4.6070405 0 0 1 0.21951,0.75184 4.6070405,4.6070405 0 0 1 0.0243,0.13046 4.6070405,4.6070405 0 0 1 0.0686,0.77708 4.6070405,4.6070405 0 0 1 -0.004,0.12808 4.6070405,4.6070405 0 0 1 -0.0857,0.78803 4.6070405,4.6070405 0 0 1 -0.0238,0.10047 4.6070405,4.6070405 0 0 1 -0.24426,0.7766 4.6070405,4.6070405 0 0 1 -0.0329,0.0686 4.6070405,4.6070405 0 0 1 -0.40853,0.74517 c -0.75622,1.10702 -1.5449,2.18214 -2.3641,3.22498 -0.81919,1.04284 -1.66912,2.05337 -2.5474,3.03069 -0.87828,0.97733 -1.78487,1.9217 -2.71835,2.83215 -0.93347,0.91045 -1.89357,1.78708 -2.87833,2.62931 -0.98477,0.84222 -1.99425,1.65002 -3.02641,2.42265 -1.03217,0.77264 -2.08693,1.51002 -3.1626,2.21172 -1.07567,0.7017 -2.17206,1.36757 -3.28734,1.99698 -1.11529,0.62941 -2.24968,1.22218 -3.40067,1.77794 -1.151,0.55578 -2.3188,1.07482 -3.50162,1.55559 -1.18281,0.48077 -2.38038,0.92357 -3.59112,1.32799 -1.21074,0.40441 -2.43446,0.77034 -3.66923,1.09704 -1.23477,0.32671 -2.48096,0.61419 -3.73587,0.86184 -1.25491,0.24765 -2.51854,0.45557 -3.78969,0.62281 -1.27115,0.16722 -2.54952,0.29355 -3.83301,0.37901 -1.2835,0.0854 -2.5725,0.13003 -3.86444,0.13237 -1.29195,0.003 -2.58698,-0.0374 -3.88349,-0.11952 v 50.41962 h 67.75483 v -17.86852 h -40.01999 a 3.4552804,3.4552804 0 0 1 -3.45495,-3.45494 3.4552804,3.4552804 0 0 1 3.45495,-3.45543 h 40.01999 v -6.45518 h -40.01999 a 3.4552804,3.4552804 0 0 1 -3.45495,-3.45542 3.4552804,3.4552804 0 0 1 3.45495,-3.45543 h 40.01999 z m -69.35375,34.4957 a 5.0302894,5.0302894 0 0 1 5.03005,5.03006 5.0302894,5.0302894 0 0 1 -5.03005,5.03006 c -9.144,0 -16.44863,7.30462 -16.44863,16.44863 a 5.0302894,5.0302894 0 0 1 -5.03006,5.03148 5.0302894,5.0302894 0 0 1 -5.02958,-5.03148 c 0,-14.58109 11.92713,-26.50875 26.50827,-26.50875 z" /><path
         id="path49-0"
         style="color:#000000;display:inline;fill:#fc753d;fill-opacity:1;stroke-width:1;stroke-linecap:round;stroke-linejoin:round;-inkscape-stroke:none"
         d="m 318.55661,327.42849 h -40.02 a 3.4552804,3.4552804 0 0 0 -3.45495,3.45542 3.4552804,3.4552804 0 0 0 3.45495,3.45495 h 40.02 z" /><path
         id="path49-0-7"
         style="color:#000000;display:inline;fill:#fb743c;fill-opacity:1;stroke-width:1;stroke-linecap:round;stroke-linejoin:round;-inkscape-stroke:none"
         d="m 318.55661,314.06246 h -40.02 a 3.4552804,3.4552804 0 0 0 -3.45495,3.45542 3.4552804,3.4552804 0 0 0 3.45495,3.45543 h 40.02 z" /><path
         id="path65"
         style="display:inline;fill:#f0421f;fill-opacity:1;stroke:none;stroke-width:10;stroke-dasharray:none;stroke-opacity:1"
         d="m 386.31145,301.78776 v -9.23494 c -17.76366,1.34568 -35.27586,-6.7649 -45.64621,-21.94579 a 4.6070405,4.6070405 0 0 0 -6.40327,-1.20562 4.6070405,4.6070405 0 0 0 -1.20562,6.4028 c 12.09968,17.71244 32.51057,27.29809 53.2551,25.98355 z" /><path
         id="path67"
         style="color:#000000;display:inline;fill:#f3461e;fill-opacity:1;stroke-width:1;stroke-linecap:round;stroke-linejoin:round;-inkscape-stroke:none"
         d="m 318.55661,327.42849 v 6.91037 h 13.16986 a 3.4552804,3.4552804 0 0 0 3.45543,-3.45495 3.4552804,3.4552804 0 0 0 -3.45543,-3.45542 z" /><path
         style="fill:#41913a;fill-opacity:1;stroke:none;stroke-width:6.67553;stroke-linecap:butt;stroke-linejoin:miter;stroke-dasharray:none;stroke-opacity:1"
         d="m 318.41405,439.59248 c 14.74195,-0.8712 28.91459,-12.4341 35.22135,-28.73571 4.13937,-10.74713 4.33537,-22.26086 0.53948,-31.69069"
         id="path73" /><path
         style="fill:#a8cb67;fill-opacity:1;stroke:none;stroke-width:6.67553;stroke-linecap:butt;stroke-linejoin:miter;stroke-dasharray:none;stroke-opacity:1"
         d="m 354.17488,379.16608 c -14.73409,0.84471 -28.91479,12.37747 -35.24564,28.66428 -4.15154,10.77477 -4.3388,22.31944 -0.51519,31.76212"
         id="path56" /><path
         style="color:#000000;display:inline;fill:#fed79b;fill-opacity:1;stroke-width:1;stroke-linecap:round;stroke-linejoin:round;-inkscape-stroke:none"
         d="m 249.20289,208.51277 c -14.5812,0 -26.50848,11.92728 -26.50848,26.50848 a 5.0302894,5.0302894 0 0 0 5.02996,5.03175 5.0302894,5.0302894 0 0 0 5.02995,-5.03175 c 0,-9.14406 7.30451,-16.44857 16.44857,-16.44857 a 5.0302894,5.0302894 0 0 0 5.02996,-5.02995 5.0302894,5.0302894 0 0 0 -5.02996,-5.02996 z"
         id="path48-0-8" /><path
         id="path66"
         style="color:#000000;display:inline;fill:#f3461e;fill-opacity:1;stroke-width:1;stroke-linecap:round;stroke-linejoin:round;-inkscape-stroke:none"
         d="m 318.55661,314.06246 v 6.91085 h 13.16986 a 3.4552804,3.4552804 0 0 0 3.45543,-3.45543 3.4552804,3.4552804 0 0 0 -3.45543,-3.45542 z" /><path
         id="path46"
         style="display:inline;fill:#f97039;fill-opacity:1;stroke:none;stroke-width:10;stroke-dasharray:none;stroke-opacity:1"
         d="m 250.80177,301.78776 c 20.74409,1.31419 41.15417,-8.27138 53.25367,-25.98355 a 4.6070405,4.6070405 0 0 0 -1.20371,-6.4028 4.6070405,4.6070405 0 0 0 -6.40328,1.20562 c -10.37044,15.18104 -27.88283,23.29119 -45.64668,21.94531 z" /><path
         style="display:inline;fill:#42923b;fill-opacity:1;stroke:none;stroke-width:6.67553;stroke-linecap:butt;stroke-linejoin:miter;stroke-dasharray:none;stroke-opacity:1"
         d="m 318.20485,439.67502 c 6.61649,-13.2025 3.68905,-31.25782 -7.27518,-44.87044 -7.23761,-8.95836 -17.11079,-14.88498 -27.1752,-16.31255"
         id="path72" /><path
         style="display:inline;fill:#a8cb65;fill-opacity:1;stroke:none;stroke-width:6.67553;stroke-linecap:butt;stroke-linejoin:miter;stroke-dasharray:none;stroke-opacity:1"
         d="m 283.75447,378.49203 c -6.6355,13.18245 -3.73819,31.22968 7.20118,44.85576 7.25546,8.98272 17.1598,14.91723 27.2492,16.32723"
         id="path56-8" /><path
         id="path39"
         style="display:inline;fill:#fb743c;fill-opacity:1;stroke:none;stroke-width:0.290924;stroke-opacity:1"
         d="m 422.57334,374.13841 a 31.351819,31.351819 0 0 0 -31.35167,31.35168 31.351819,31.351819 0 0 0 31.35167,31.35167 31.351819,31.351819 0 0 0 31.35168,-31.35167 31.351819,31.351819 0 0 0 -31.35168,-31.35168 z m -10.68483,14.87495 a 5.0677419,4.9992591 0 0 1 5.06815,4.99959 5.0677419,4.9992591 0 0 1 -5.06815,4.9991 5.0677419,4.9992591 0 0 1 -5.06767,-4.9991 5.0677419,4.9992591 0 0 1 5.06767,-4.99959 z" /></g></g></svg>
